<?xml version="1.0" encoding="iso-8859-1"?>
<!-- Uploaded to: SVG Repo, www.svgrepo.com, Generator: SVG Repo Mixer Tools -->
<svg version="1.1" id="Layer_1" xmlns="http://www.w3.org/2000/svg" xmlns:xlink="http://www.w3.org/1999/xlink" 
	 viewBox="0 0 512.004 512.004" xml:space="preserve">
<rect x="183.208" y="358.306" style="fill:#C69C6D;" width="144.833" height="153.688"/>
<g>
	<rect x="199.377" y="382.986" style="fill:#C7B299;" width="112.808" height="129.018"/>
	<rect x="191.292" y="91.384" style="fill:#C7B299;" width="129.424" height="24.266"/>
</g>
<rect x="223.651" y="67.121" style="fill:#C69C6D;" width="64.707" height="24.266"/>
<g>
	<polygon style="fill:#D5A940;" points="312.622,66.679 199.381,66.679 256.002,10.278 256.002,10.168 	"/>
	<rect x="167.029" y="334.042" style="fill:#D5A940;" width="177.951" height="24.266"/>
	<rect x="167.029" y="115.648" style="fill:#D5A940;" width="177.951" height="24.266"/>
</g>
<circle style="fill:#FFFFFF;" cx="255.999" cy="236.977" r="72.798"/>
<path style="fill:#C7B299;" d="M159.239,139.512V334.08h193.527V139.512H159.239z M256.002,309.779
	c-40.206,0-72.798-32.594-72.798-72.798c0-40.206,32.593-72.798,72.798-72.798s72.798,32.593,72.798,72.798
	S296.208,309.779,256.002,309.779z"/>
<g>
	<rect x="158.934" y="309.779" style="fill:#C69C6D;" width="194.131" height="24.266"/>
	<rect x="158.934" y="139.912" style="fill:#C69C6D;" width="194.131" height="24.266"/>
</g>
<polygon points="279.933,245.64 247.678,245.64 247.678,188.414 263.285,188.414 263.285,230.033 279.933,230.033 "/>
<path d="M151.134,132.113v209.736H360.87V132.113H151.134z M166.741,326.242v-7.769h16.428v-15.607h-16.428V172.807h16.428V157.2
	h-16.428v-9.48h178.522v9.48h-16.428v15.607h16.428v130.059h-16.428v15.607h16.428v7.769H166.741z"/>
<rect x="198.773" y="382.986" width="15.607" height="129.018"/>
<rect x="223.744" y="382.986" width="15.607" height="129.018"/>
<rect x="247.675" y="382.986" width="15.607" height="129.018"/>
<rect x="271.606" y="382.986" width="15.607" height="129.018"/>
<polygon points="345.482,350.727 166.522,350.727 166.522,366.334 174.846,366.334 174.846,512 190.453,512 190.453,366.334 
	320.511,366.334 320.511,512 336.118,512 336.118,366.334 345.482,366.334 "/>
<rect x="296.577" y="382.986" width="15.607" height="129.018"/>
<path d="M327.794,108.298v-8.324h9.364V84.367H295.54v-9.364h35.974L256.22,0l-75.294,75.003h34.498v9.364h-40.578v15.607h8.324
	v8.324h-16.647v15.607h178.961v-15.607H327.794z M256.22,22.029l37.513,37.367h-75.024L256.22,22.029z M231.031,75.003h48.902v9.364
	h-48.902V75.003z M312.187,108.298H198.776v-8.324h113.411V108.298z"/>
<rect x="223.744" y="253.968" width="15.607" height="15.607"/>
<rect x="247.675" y="253.968" style="fill:#C7B299;" width="16.647" height="15.607"/>
<rect x="272.646" y="253.968" width="15.607" height="15.607"/>
<path d="M256.002,156.379c-44.444,0-80.602,36.158-80.602,80.602s36.158,80.602,80.602,80.602s80.602-36.158,80.602-80.602
	S300.446,156.379,256.002,156.379z M320.403,245.64c-1.572,11.752-6.293,22.514-13.289,31.416l-5.557-5.557l-11.036,11.036
	l5.557,5.557c-9.25,7.269-20.505,12.087-32.792,13.464v-8.055h-15.607v7.923c-11.882-1.526-22.764-6.269-31.752-13.332l5.557-5.557
	l-11.036-11.036l-5.557,5.557c-6.996-8.903-11.716-19.665-13.289-31.416h8.216v-15.607h-8.433
	c1.327-12.419,6.172-23.793,13.506-33.127l5.557,5.557l11.036-11.037l-5.557-5.557c8.988-7.063,19.87-11.804,31.752-13.332v7.553
	h15.607v-7.686c12.288,1.378,23.543,6.195,32.792,13.464l-5.557,5.557l11.036,11.037l5.557-5.557
	c7.334,9.334,12.181,20.708,13.506,33.127h-8.433v15.607h8.216V245.64z"/>
</svg>