<?xml version="1.0" ?><!-- Uploaded to: SVG Repo, www.svgrepo.com, Generator: SVG Repo Mixer Tools -->
<svg fill="#000000" width="800px" height="800px" viewBox="0 0 100 100" data-name="Layer 1" id="Layer_1" xmlns="http://www.w3.org/2000/svg"><path d="M71.07,23.85a2,2,0,0,0-.07-.23.94.94,0,0,0-.12-.22,1.25,1.25,0,0,0-.15-.19,1.39,1.39,0,0,0-.19-.15,1.55,1.55,0,0,0-.22-.12l-.23-.07a1.27,1.27,0,0,0-1.13.34,1.29,1.29,0,0,0-.36.89A1.25,1.25,0,0,0,69,25l.19.16.22.11a.88.88,0,0,0,.23.07,1,1,0,0,0,.25,0,1,1,0,0,0,.24,0,.88.88,0,0,0,.23-.07,1.51,1.51,0,0,0,.22-.11l.19-.16a.9.9,0,0,0,.15-.19,1.13,1.13,0,0,0,.12-.21,2.17,2.17,0,0,0,.07-.24,1,1,0,0,0,0-.24A1.06,1.06,0,0,0,71.07,23.85Z"/><path d="M69.6,28.42l-.23.07a.94.94,0,0,0-.22.12,1.39,1.39,0,0,0-.19.15,1.29,1.29,0,0,0-.36.89,1.25,1.25,0,0,0,.36.88,1.24,1.24,0,0,0,1.77,0,1.25,1.25,0,0,0,.36-.88,1.29,1.29,0,0,0-.36-.89A1.27,1.27,0,0,0,69.6,28.42Z"/><path d="M72.38,25.65a1.09,1.09,0,0,0-.24.07l-.21.11a1,1,0,0,0-.19.16,1.23,1.23,0,0,0-.37.88,1.26,1.26,0,0,0,.37.89,1,1,0,0,0,.19.15.88.88,0,0,0,.21.12l.24.07.24,0,.24,0L73.1,28a.88.88,0,0,0,.21-.12,1,1,0,0,0,.19-.15,1.26,1.26,0,0,0,.37-.89,1.25,1.25,0,0,0-1.49-1.22Z"/><path d="M66.38,27.91a.88.88,0,0,0,.21.12l.24.07.24,0,.24,0,.24-.07a.88.88,0,0,0,.21-.12,1,1,0,0,0,.19-.15,1.26,1.26,0,0,0,.37-.89,1.25,1.25,0,0,0-1.49-1.22,1.09,1.09,0,0,0-.24.07l-.21.11a1,1,0,0,0-.19.16,1.23,1.23,0,0,0-.37.88,1.26,1.26,0,0,0,.37.89A1,1,0,0,0,66.38,27.91Z"/><path d="M23.59,34.38a1.25,1.25,0,0,0,.88-.36,1.3,1.3,0,0,0,.37-.89,1.26,1.26,0,0,0-.37-.88,1.29,1.29,0,0,0-1.77,0,1.25,1.25,0,0,0-.36.88,1.29,1.29,0,0,0,.36.89A1.27,1.27,0,0,0,23.59,34.38Z"/><path d="M23.59,39.93a1.23,1.23,0,0,0,.88-.37,1.37,1.37,0,0,0,.16-.18,2.26,2.26,0,0,0,.11-.22,1.19,1.19,0,0,0,.07-.23,1.13,1.13,0,0,0,0-.25,1.26,1.26,0,0,0-.37-.88,1.29,1.29,0,0,0-1.77,0,1.25,1.25,0,0,0,.89,2.13Z"/><path d="M25.48,35a1.46,1.46,0,0,0-.16.19,1.51,1.51,0,0,0-.11.22.9.9,0,0,0-.08.23,1.51,1.51,0,0,0,0,.49.9.9,0,0,0,.08.23,1.51,1.51,0,0,0,.11.22,1.46,1.46,0,0,0,.16.19,1.23,1.23,0,0,0,1.76,0,1.23,1.23,0,0,0,.37-.88,1.26,1.26,0,0,0-.37-.89A1.29,1.29,0,0,0,25.48,35Z"/><path d="M20.81,37.16a1.26,1.26,0,0,0,.88-.37,1.23,1.23,0,0,0,.37-.88,1.26,1.26,0,0,0-.37-.89,1.29,1.29,0,0,0-1.76,0,1.26,1.26,0,0,0-.37.89,1.23,1.23,0,0,0,.37.88A1.26,1.26,0,0,0,20.81,37.16Z"/><path d="M18.86,65.37h3.83V77.52a1.25,1.25,0,0,0,1.25,1.25h3.89a1.25,1.25,0,0,0,1.25-1.25V65.37h2.84v6.15a1.25,1.25,0,0,0,1.25,1.25h32.9a1.25,1.25,0,0,0,1.25-1.25V65.37h2.84V77.52a1.25,1.25,0,0,0,1.25,1.25H75.3a1.25,1.25,0,0,0,1.25-1.25V65.37h3.83a1.25,1.25,0,0,0,1.25-1.25V54.27A1.25,1.25,0,0,0,80.38,53H67.32V49.59h5.56a1.26,1.26,0,0,0,.85-2.18L50.47,26.15a1.27,1.27,0,0,0-1.69,0L25.52,47.41a1.26,1.26,0,0,0,.84,2.18h5.56V53H18.86a1.25,1.25,0,0,0-1.25,1.25v9.85A1.25,1.25,0,0,0,18.86,65.37Zm1.25-9.85h.18l7.35,7.35H20.11Zm24.91,0,7.35,7.35H43.54l-7.35-7.35Zm12.36,0,7.35,7.35H55.9l-7.34-7.35Zm12.37,0,7.34,7.35H68.26l-7.34-7.35h8.83Zm-37.09,0L40,62.87H31.17l-7.34-7.35ZM26.58,76.27H25.19V65.37h1.39Zm38.24-6H34.42v-4.9h30.4Zm9.23,6H72.66V65.37h1.39Zm5.08-14.9-5.85-5.85h5.85ZM29.58,47.09l20-18.32,20,18.32H66.07a1.25,1.25,0,0,0-1.25,1.25V53H34.42V48.34a1.24,1.24,0,0,0-1.25-1.25Z"/></svg>